<?xml version="1.0" standalone="no"?>
<!DOCTYPE svg PUBLIC "-//W3C//DTD SVG 20010904//EN"
 "http://www.w3.org/TR/2001/REC-SVG-20010904/DTD/svg10.dtd">
<svg version="1.0" xmlns="http://www.w3.org/2000/svg"
 width="1024.000000pt" height="1024.000000pt" viewBox="0 0 1024.000000 1024.000000"
 preserveAspectRatio="xMidYMid meet">

<g transform="translate(0.000000,1024.000000) scale(0.100000,-0.100000)"
fill="#000000" stroke="none">
<path d="M7160 7343 c-381 -30 -754 -142 -1037 -312 -150 -89 -350 -252 -336
-274 4 -6 1 -7 -7 -2 -17 10 -213 -193 -205 -212 2 -8 0 -11 -5 -8 -10 6 -83
-88 -128 -164 -44 -74 -99 -212 -120 -301 -41 -170 -43 -258 -32 -1263 5 -524
13 -985 16 -1025 7 -83 20 -102 71 -102 53 0 221 89 208 111 -4 5 0 6 8 3 20
-7 105 89 136 156 l26 55 5 485 5 484 34 23 c45 30 108 31 146 1 53 -42 55
-56 55 -457 0 -408 9 -538 47 -651 37 -113 78 -176 172 -270 190 -187 381
-241 463 -129 11 14 32 77 47 140 16 63 54 184 86 269 132 357 155 446 155
602 0 264 -109 489 -303 620 -73 49 -224 121 -237 113 -5 -3 -8 0 -5 7 3 7 42
24 88 37 164 48 290 92 360 127 149 74 280 197 366 342 84 140 124 295 165
639 15 124 42 285 66 385 55 241 62 293 49 363 -33 182 -112 227 -359 208z
m47 -19 c-3 -3 -12 -4 -19 -1 -8 3 -5 6 6 6 11 1 17 -2 13 -5z m-1467 -618 c0
-2 -8 -10 -17 -17 -16 -13 -17 -12 -4 4 13 16 21 21 21 13z m655 -265 c83 -38
137 -125 154 -250 17 -134 -22 -224 -159 -362 -101 -101 -198 -168 -377 -258
-86 -43 -215 -91 -245 -91 -7 0 -9 67 -5 208 6 235 21 313 83 442 48 97 168
220 265 268 121 61 214 75 284 43z m-755 -2595 c0 -2 -8 -10 -17 -17 -16 -13
-17 -12 -4 4 13 16 21 21 21 13z m-289 -143 c13 -16 12 -17 -3 -4 -10 7 -18
15 -18 17 0 8 8 3 21 -13z"/>
<path d="M2878 7326 c-65 -24 -85 -43 -119 -111 -56 -114 -54 -160 25 -520 9
-38 30 -173 47 -300 16 -126 39 -274 50 -328 64 -322 240 -559 501 -676 70
-31 208 -69 369 -100 387 -75 633 -259 724 -540 13 -39 16 -74 13 -126 -7
-105 -15 -109 -57 -28 -76 143 -136 206 -317 329 -119 81 -276 158 -368 181
-75 18 -151 10 -223 -23 -65 -31 -166 -140 -206 -224 -56 -119 -71 -186 -71
-340 -1 -164 21 -254 115 -479 62 -148 96 -249 144 -420 14 -51 35 -107 47
-123 70 -99 297 -106 571 -17 164 53 439 202 422 229 -3 5 0 12 6 16 8 4 9 3
5 -4 -20 -33 21 -4 86 61 92 92 177 216 255 378 116 236 145 353 145 572 0
224 -57 391 -179 526 -111 123 -203 180 -444 276 -250 100 -456 222 -563 333
-22 23 -44 38 -49 35 -6 -3 -7 -1 -3 5 3 6 -7 30 -23 54 -87 130 -89 263 -3
387 52 77 107 105 187 97 243 -25 467 -230 559 -513 29 -89 102 -124 261 -126
117 -2 147 10 172 71 25 60 13 142 -40 266 -242 563 -768 983 -1412 1125 -250
55 -558 84 -627 57z m1002 -1540 c0 -2 -8 -10 -17 -17 -16 -13 -17 -12 -4 4
13 16 21 21 21 13z"/>
</g>
</svg>
