<?xml version="1.0" encoding="UTF-8"?>
<svg version="1.1" xmlns="http://www.w3.org/2000/svg" width="1024" height="1024">
<path d="M0 0 C337.92 0 675.84 0 1024 0 C1024 337.92 1024 675.84 1024 1024 C686.08 1024 348.16 1024 0 1024 C0 686.08 0 348.16 0 0 Z " fill="#F7F0E6" transform="translate(0,0)"/>
<path d="M0 0 C5.76907874 5.76907874 8.09502849 14.26975771 8.2824707 22.23852539 C7.70621753 32.05145822 5.93380632 41.19039176 3.56283569 50.71670532 C-0.54170032 67.32244915 -3.32791658 83.8312616 -5.12792969 100.8359375 C-5.9955244 108.92835332 -7.09927288 116.87618271 -8.765625 124.84765625 C-8.92480911 125.61213577 -9.08399323 126.3766153 -9.2480011 127.16426086 C-13.39178674 146.12104938 -22.01184097 162.0933175 -35.80078125 175.69921875 C-36.46851563 176.36566406 -37.13625 177.03210938 -37.82421875 177.71875 C-52.40204369 191.34317288 -80.53310651 204.69921875 -100.80078125 204.69921875 C-100.80078125 205.35921875 -100.80078125 206.01921875 -100.80078125 206.69921875 C-99.60453125 207.02921875 -98.40828125 207.35921875 -97.17578125 207.69921875 C-78.82694285 213.87319897 -63.56565574 227.01124459 -54.83911133 244.2253418 C-49.26554666 255.8894524 -47.53167814 266.39145242 -47.30078125 279.19921875 C-47.25449585 280.71866089 -47.25449585 280.71866089 -47.20727539 282.26879883 C-47.20587314 300.356471 -53.87209805 317.61857224 -60.30078125 334.26171875 C-64.58004576 345.36350449 -68.51365292 356.27735355 -71.05334473 367.92469788 C-72.77781399 375.575057 -75.00241251 382.22660774 -81.80078125 386.69921875 C-86.52790875 389.0627825 -92.68117257 388.36215386 -97.5859375 386.828125 C-116.74712908 378.41925675 -132.187103 364.22380307 -139.98828125 344.57421875 C-144.22149542 331.6835986 -145.23588445 319.09026317 -145.21147156 305.63447189 C-145.20691157 302.90091252 -145.22121314 300.16797299 -145.23986816 297.43447876 C-145.28241483 290.66228195 -145.2939275 283.89010502 -145.30609131 277.11779785 C-145.31763332 271.35464508 -145.34118425 265.5917848 -145.38078308 259.82875443 C-145.39429653 257.14428457 -145.39019727 254.46021647 -145.38537598 251.77572632 C-145.39471513 250.12961314 -145.40488359 248.48350438 -145.41601562 246.83740234 C-145.4098674 246.09864868 -145.40371918 245.35989502 -145.39738464 244.59875488 C-145.46319151 239.04779011 -146.77858768 235.03251903 -150.42578125 230.82421875 C-154.11087439 229.07864832 -157.81695501 228.88053601 -161.80078125 229.69921875 C-165.05388893 231.07101002 -165.05388893 231.07101002 -167.80078125 233.69921875 C-168.68484798 236.66026287 -168.57732532 239.53661655 -168.51025391 242.60766602 C-168.51445847 243.50741653 -168.51866302 244.40716705 -168.522995 245.33418274 C-168.53071097 248.31201014 -168.49708254 251.28798595 -168.46484375 254.265625 C-168.46593785 256.34106346 -168.47024716 258.41650249 -168.47763062 260.4919281 C-168.49105692 265.9640399 -168.47219109 271.43549672 -168.44317627 276.90753174 C-168.39788647 285.6405173 -168.38229734 294.37313926 -168.40272141 303.10621452 C-168.40235075 306.14576205 -168.37665349 309.18436541 -168.34902954 312.22377014 C-168.29998127 327.23863953 -170.37839543 337.76403084 -180.91796875 348.9453125 C-188.06196882 355.89021749 -197.80439572 363.10405297 -208.17578125 363.13671875 C-209.37203125 362.99234375 -210.56828125 362.84796875 -211.80078125 362.69921875 C-214.63814312 357.07255395 -215.25384458 352.60284904 -215.27734375 346.34765625 C-215.29260605 345.41535187 -215.30786835 344.48304749 -215.32359314 343.52249146 C-215.37158658 340.37309195 -215.39868056 337.22386258 -215.42578125 334.07421875 C-215.45572375 331.77797848 -215.48693291 329.48175443 -215.51928711 327.18554688 C-215.58841136 322.1130183 -215.64860205 317.04047402 -215.70361328 311.96777344 C-215.79022694 304.09781797 -215.91378584 296.2286281 -216.04140472 288.35924721 C-216.58843799 254.43485901 -216.93364447 220.50734127 -217.0319519 186.57861328 C-217.04291585 182.90423142 -217.06063462 179.22998423 -217.08450317 175.55566406 C-217.11208409 171.22215811 -217.12413717 166.88886417 -217.12491798 162.55527306 C-217.12751089 160.97527052 -217.13505959 159.39526564 -217.14838219 157.81531715 C-217.2619231 143.55501419 -215.94339795 129.09922058 -211.11328125 115.57421875 C-210.72873779 114.47231201 -210.72873779 114.47231201 -210.33642578 113.34814453 C-203.00857669 93.04725623 -190.7393156 77.05138664 -175.80078125 61.69921875 C-174.98480469 60.85488281 -174.16882813 60.01054687 -173.328125 59.140625 C-155.69240278 41.20240325 -135.3284773 27.34154022 -112.66943359 16.58837891 C-110.99337006 15.79085821 -109.32795097 14.97105733 -107.6640625 14.1484375 C-84.65450007 3.43758723 -23.73282394 -17.14323291 0 0 Z " fill="#6D7559" transform="translate(744.80078125,293.30078125)"/>
<path d="M0 0 C9.79057337 6.7392092 18.95720628 14.32026876 27.57421875 22.5 C28.09983398 22.99306641 28.62544922 23.48613281 29.16699219 23.99414062 C47.95977506 41.72560833 61.44700909 62.79581482 71.57421875 86.5 C71.86264648 87.17393799 72.15107422 87.84787598 72.44824219 88.54223633 C75.38503886 95.81558691 76.13215163 104.10320603 73.44921875 111.625 C71.13587601 115.17212553 69.48992737 115.94369866 65.57421875 117.5 C62.87031242 117.76058372 60.45049633 117.88317315 57.76171875 117.8125 C57.05466797 117.80049561 56.34761719 117.78849121 55.61914062 117.77612305 C46.97323879 117.542906 39.23521519 116.44623198 32.57421875 110.5 C30.77423379 107.99744027 29.68609875 105.36522924 28.57421875 102.5 C20.56276049 82.4145355 10.1066733 66.56632671 -10.28613281 57.73876953 C-18.511036 54.46754652 -26.59292892 53.06854529 -35.42578125 54.5 C-37.68484747 55.94295768 -37.68484747 55.94295768 -39.42578125 57.5 C-40.08578125 57.5 -40.74578125 57.5 -41.42578125 57.5 C-41.69132812 58.05171875 -41.956875 58.6034375 -42.23046875 59.171875 C-43.42578125 61.5 -43.42578125 61.5 -44.93359375 63.953125 C-49.71512227 72.22262843 -51.21028538 80.16461206 -49.42578125 89.5 C-42.14809795 112.09411483 -21.25261441 123.86128871 -1.45019531 134.11566162 C7.33147194 138.61649 16.21162273 142.51289351 25.50146484 145.85595703 C37.43639026 150.17546647 48.11332831 155.92656327 57.57421875 164.5 C58.41597656 165.24894531 59.25773438 165.99789062 60.125 166.76953125 C74.53926347 180.30887736 82.11951123 198.47630496 82.7578125 218.1328125 C83.21519554 241.63456408 78.24655829 260.23616015 68.19921875 281.375 C67.40584106 283.05009644 67.40584106 283.05009644 66.59643555 284.7590332 C51.01493559 316.69081823 25.67449385 337.7981495 -7.67578125 349.390625 C-12.22631155 350.88771635 -16.79477089 352.27431568 -21.42578125 353.5 C-22.11406006 353.69287598 -22.80233887 353.88575195 -23.51147461 354.08447266 C-30.14101928 355.77940235 -36.67291508 355.86721546 -43.48828125 355.875 C-44.62072266 355.89949219 -45.75316406 355.92398437 -46.91992188 355.94921875 C-55.42417023 355.97893657 -60.97126145 354.8777527 -67.23828125 348.75 C-71.35064547 342.64020173 -72.95485252 335.75334346 -74.67578125 328.6875 C-77.66769573 316.92622077 -81.86151012 305.70483007 -86.4765625 294.4921875 C-97.26190138 268.25326654 -103.84145836 241.65450297 -93.140625 214.203125 C-89.7768048 206.8195865 -85.17731343 201.17052469 -79.42578125 195.5 C-78.83796875 194.901875 -78.25015625 194.30375 -77.64453125 193.6875 C-71.90916655 188.27677859 -65.06703182 185.34814341 -57.17578125 185 C-32.76894137 186.09539814 -5.39306755 204.58983815 11.01171875 222 C16.44511895 228.23736674 20.62427675 234.7700594 23.57421875 242.5 C26.73563512 237.15873606 26.28888926 231.50196741 25.57421875 225.5 C20.02860574 206.29757488 8.34765024 192.20420812 -9.0234375 182.42578125 C-23.4207534 174.68298 -38.55989378 170.78900366 -54.48828125 167.5 C-80.85298092 162.0220326 -103.25131654 153.34956736 -119.16943359 130.41357422 C-130.36218965 113.33701286 -135.03241394 94.52921781 -137.69210815 74.53659058 C-137.99767658 72.24194643 -138.31506259 69.94917506 -138.63500977 67.65649414 C-139.52319059 61.26739531 -140.38288694 54.87526195 -141.19921875 48.4765625 C-142.6155519 37.60198722 -144.76096302 27.03588785 -147.35717773 16.37670898 C-150.78189555 2.27177499 -153.41762631 -13.08382977 -146.42578125 -26.5 C-143.554064 -31.0406698 -139.92412504 -34.32838486 -134.76953125 -36.0546875 C-91.99573995 -44.18170785 -35.22424969 -23.38314479 0 0 Z " fill="#6D7559" transform="translate(422.42578125,326.5)"/>
<path d="M0 0 C7.51122906 6.3509579 10.27641155 14.2696463 11.484375 23.8359375 C12.3498637 36.29593794 7.84898884 45.88757784 -0.3125 55.3125 C-1.85427302 56.89545561 -3.41656483 58.45871951 -5 60 C-5.70253906 60.72316406 -6.40507813 61.44632812 -7.12890625 62.19140625 C-20.7151642 75.3996118 -48.12120091 94 -68 94 C-68.73229048 34.56617772 -68.73229048 34.56617772 -48.125 12.5625 C-36.28806983 1.61450925 -15.25536057 -10.57064355 0 0 Z " fill="#F6F0E6" transform="translate(644,382)"/>
<path d="M0 0 C0.33 0 0.66 0 1 0 C1.00938567 0.6246496 1.01877134 1.2492992 1.02844143 1.89287758 C1.26001179 17.29479634 1.49400271 32.69667632 1.73049068 48.09852028 C1.84481294 55.54759713 1.95838816 62.99668382 2.07006836 70.44580078 C2.19932397 79.06025772 2.33056644 87.6746823 2.46484375 96.2890625 C2.48117898 97.33702735 2.48117898 97.33702735 2.49784422 98.40616322 C2.85046085 120.94172074 3.30670679 143.47213533 4 166 C5.65 166 7.3 166 9 166 C9.495 164.02 9.495 164.02 10 162 C14.54545455 160.86363636 14.54545455 160.86363636 16.875 161.5625 C20.18350237 162.24366225 22.85172412 161.02924404 26 160 C22.50324757 164.256916 18.19280963 166.41742945 13 168 C9.90572434 168.29914448 7.11885956 168.19802283 4 168 C1.03234918 162.19220461 0.53416122 157.44172509 0.49047852 150.97167969 C0.47265005 149.98525734 0.45482159 148.99883499 0.43645287 147.98252106 C0.38175873 144.71234308 0.34861359 141.44234616 0.31640625 138.171875 C0.28361756 135.84949657 0.2500374 133.5271292 0.2157135 131.20477295 C-0.13216621 105.77185186 -0.11644905 80.33588226 -0.06866455 54.90118408 C-0.05814367 48.66980352 -0.05380765 42.43841827 -0.04882812 36.20703125 C-0.03833373 24.13800944 -0.02143894 12.06900702 0 0 Z " fill="#555B44" transform="translate(529,488)"/>
<path d="M0 0 C0.33 0 0.66 0 1 0 C1.39644136 9.41548238 1.34096904 18.29374665 -0.875 27.5 C-1.04870117 28.2230835 -1.22240234 28.94616699 -1.40136719 29.69116211 C-2.20507079 32.7756161 -2.70963375 34.70963375 -5 37 C-5.33 35.68 -5.66 34.36 -6 33 C-5.34 33 -4.68 33 -4 33 C-4 31.700625 -4 30.40125 -4 29.0625 C-4 27.375 -4 25.6875 -4 24 C-4.66 23.34 -5.32 22.68 -6 22 C-6.39764263 20.01178687 -6.73775349 18.01055661 -7 16 C-5.33333333 16 -3.66666667 16 -2 16 C-1.34 10.72 -0.68 5.44 0 0 Z " fill="#5D6349" transform="translate(696,568)"/>
<path d="M0 0 C0.33 0 0.66 0 1 0 C1 9.57 1 19.14 1 29 C1.99 28.67 2.98 28.34 4 28 C4 28.99 4 29.98 4 31 C2.35 31.33 0.7 31.66 -1 32 C-1.02465504 27.60343827 -1.04283842 23.2069128 -1.05493164 18.81030273 C-1.05997121 17.31355082 -1.06680287 15.81680384 -1.07543945 14.32006836 C-1.08752159 12.17300193 -1.09323191 10.02600038 -1.09765625 7.87890625 C-1.10289307 6.5854126 -1.10812988 5.29191895 -1.11352539 3.95922852 C-1 1 -1 1 0 0 Z " fill="#E5E5D9" transform="translate(577,444)"/>
<path d="M0 0 C0.66 0 1.32 0 2 0 C2.68724107 12.00762868 0.88520578 20.99546417 -6.6328125 30.5390625 C-8 32 -8 32 -10 33 C-9.79375 32.401875 -9.5875 31.80375 -9.375 31.1875 C-8.69328085 28.71549154 -8.69328085 28.71549154 -11 26 C-9.35 26 -7.7 26 -6 26 C-5.67 25.01 -5.34 24.02 -5 23 C-4.34 23 -3.68 23 -3 23 C-1.31438733 17.78556404 -0.61487302 13.02460865 -0.375 7.5625 C-0.31699219 6.46518555 -0.31699219 6.46518555 -0.2578125 5.34570312 C-0.16466016 3.56416468 -0.08129714 1.78211878 0 0 Z " fill="#545B43" transform="translate(574,608)"/>
<path d="M0 0 C4.36864154 3.96225628 7.15647492 8.20562131 10.0625 13.3125 C10.48337891 14.03373047 10.90425781 14.75496094 11.33789062 15.49804688 C12.58403193 17.65222914 13.79911829 19.82029383 15 22 C15.40718262 22.7326709 15.81436523 23.4653418 16.23388672 24.22021484 C17.23790342 26.10538661 18.12847243 28.05003543 19 30 C18.67 30.99 18.34 31.98 18 33 C17.01 31.35 16.02 29.7 15 28 C13.02 28.99 13.02 28.99 11 30 C11 28.68 11 27.36 11 26 C11.99 25.67 12.98 25.34 14 25 C12.60933271 22.47619639 11.21266777 19.95602681 9.8125 17.4375 C9.23145508 16.38079102 9.23145508 16.38079102 8.63867188 15.30273438 C6.65823854 11.75104815 4.60918275 8.37639739 2.19921875 5.09765625 C0 2 0 2 0 0 Z " fill="#595D48" transform="translate(471,374)"/>
<path d="M0 0 C1.65 0 3.3 0 5 0 C5 0.66 5 1.32 5 2 C6.65 1.67 8.3 1.34 10 1 C6.43718558 4.85132859 2.7957011 7.58558306 -1.8125 10.125 C-2.42907471 10.46974365 -3.04564941 10.8144873 -3.6809082 11.16967773 C-8.0390385 13.56604816 -12.21431577 15.64556107 -17 17 C-17.99 16.67 -18.98 16.34 -20 16 C-19.4652002 15.7733667 -18.93040039 15.5467334 -18.37939453 15.31323242 C-15.9571861 14.28059564 -13.54114092 13.23424997 -11.125 12.1875 C-9.86236328 11.65286133 -9.86236328 11.65286133 -8.57421875 11.10742188 C-7.76855469 10.75615234 -6.96289062 10.40488281 -6.1328125 10.04296875 C-5.38918457 9.72352295 -4.64555664 9.40407715 -3.87939453 9.07495117 C-1.67853504 8.0018909 -1.67853504 8.0018909 0 5 C1.32 5 2.64 5 4 5 C4 4.01 4 3.02 4 2 C2.68 1.67 1.36 1.34 0 1 C0 0.67 0 0.34 0 0 Z " fill="#5A5F49" transform="translate(693,472)"/>
<path d="M0 0 C1.58493084 3.16986168 1.2940042 6.54032261 1 10 C0 12.5 0 12.5 -1 14 C-1.33 12.68 -1.66 11.36 -2 10 C-2.33 11.65 -2.66 13.3 -3 15 C-3.99 14.67 -4.98 14.34 -6 14 C-5.91276622 12.22825181 -5.80458345 10.45752623 -5.6875 8.6875 C-5.62949219 7.70136719 -5.57148437 6.71523438 -5.51171875 5.69921875 C-4.85878144 2.25509902 -3.74819785 0 0 0 Z " fill="#656C51" transform="translate(752,310)"/>
<path d="M0 0 C4.61356929 7.22201038 0.9846223 19.00448506 -0.40234375 26.98828125 C-0.69818359 27.98408203 -0.69818359 27.98408203 -1 29 C-1.66 29.33 -2.32 29.66 -3 30 C-2.68980354 26.49979191 -2.37642017 22.99987593 -2.0625 19.5 C-1.97548828 18.51773437 -1.88847656 17.53546875 -1.79882812 16.5234375 C-1.30158908 10.99855918 -0.72671885 5.49949402 0 0 Z " fill="#EDECE0" transform="translate(741,376)"/>
<path d="M0 0 C0.99 0.33 1.98 0.66 3 1 C2.34 1.66 1.68 2.32 1 3 C0.30251417 4.31747324 -0.36959957 5.64914193 -1 7 C-0.34 7.33 0.32 7.66 1 8 C0.34 8 -0.32 8 -1 8 C-1.33 9.32 -1.66 10.64 -2 12 C-3.65 12 -5.3 12 -7 12 C-7.33 11.34 -7.66 10.68 -8 10 C-7.67 9.67 -7.34 9.34 -7 9 C-7.66 8.67 -8.32 8.34 -9 8 C-6.03 5.36 -3.06 2.72 0 0 Z " fill="#666E54" transform="translate(350,516)"/>
<path d="M0 0 C1.76037221 3.52074443 -0.35745247 7.31788465 -1.40625 10.95703125 C-2.01518236 14.07780961 -1.91081596 15.98021137 -1 19 C-0.67 19.33 -0.34 19.66 0 20 C0.34229288 23.16620913 0.25632099 24.60483847 -1.5 27.3125 C-1.995 27.869375 -2.49 28.42625 -3 29 C-5.79638943 20.04704351 -4.64696237 9.46095269 -1 1 C-0.67 0.67 -0.34 0.34 0 0 Z " fill="#5A6146" transform="translate(276,301)"/>
<path d="M0 0 C0.33 0 0.66 0 1 0 C1.19697084 2.97880524 1.38277673 5.95764386 1.5625 8.9375 C1.61857422 9.76830078 1.67464844 10.59910156 1.73242188 11.45507812 C2.06275821 17.11484061 1.76547933 22.38081467 1 28 C-0.85874882 24.83317454 -1.24737367 22.52063925 -1.23046875 18.8671875 C-1.22853516 17.89652344 -1.22660156 16.92585937 -1.22460938 15.92578125 C-1.21236328 14.91902344 -1.20011719 13.91226563 -1.1875 12.875 C-1.18685547 11.86050781 -1.18621094 10.84601562 -1.18554688 9.80078125 C-1.14048812 2.28097625 -1.14048812 2.28097625 0 0 Z " fill="#5E624D" transform="translate(325,558)"/>
<path d="M0 0 C5.08335725 0.15404113 7.35754718 3.02068432 10.64453125 6.50390625 C11.09183594 6.99761719 11.53914063 7.49132812 12 8 C11.01 8.66 10.02 9.32 9 10 C2.29787234 5.68085106 2.29787234 5.68085106 0 3 C0 2 0 1 0 0 Z " fill="#EDECE0" transform="translate(424,518)"/>
<path d="M0 0 C0.63292969 0.15339844 1.26585937 0.30679688 1.91796875 0.46484375 C6.04026849 1.18062964 10.13766507 1.36150163 14.3125 1.5625 C15.14845703 1.60568359 15.98441406 1.64886719 16.84570312 1.69335938 C18.89696935 1.79885307 20.9484648 1.89987315 23 2 C23 2.33 23 2.66 23 3 C22.02417969 3.03738281 21.04835938 3.07476563 20.04296875 3.11328125 C18.13451172 3.21189453 18.13451172 3.21189453 16.1875 3.3125 C14.29064453 3.39951172 14.29064453 3.39951172 12.35546875 3.48828125 C9.03396307 3.7113494 9.03396307 3.7113494 7.05078125 5.54296875 C6.70402344 6.02378906 6.35726563 6.50460937 6 7 C3 5.1875 3 5.1875 0 3 C0 2.01 0 1.02 0 0 Z " fill="#DDDDCD" transform="translate(361,680)"/>
<path d="M0 0 C1.5625 1.8125 1.5625 1.8125 3 4 C2.67 4.99 2.34 5.98 2 7 C1.7018576 10.7763932 1.7018576 10.7763932 3 13 C-0.81287042 11.55373881 -2.32707177 9.69805188 -4 6 C-3.875 3.8125 -3.875 3.8125 -3 2 C-2.01 1.34 -1.02 0.68 0 0 Z " fill="#60674C" transform="translate(356,664)"/>
<path d="M0 0 C0.66 0.66 1.32 1.32 2 2 C-2.32221297 3.58129743 -6.39931183 4.65277825 -11 5 C-11.99 4.34 -12.98 3.68 -14 3 C-9.63252845 -0.38126829 -5.34873901 -0.80914126 0 0 Z " fill="#EDEDDE" transform="translate(592,522)"/>
<path d="M0 0 C6.19518473 0.41588046 11.26689311 1.60251894 17 4 C14.3359375 6.9765625 14.3359375 6.9765625 11.3125 7.1875 C10.1678125 7.0946875 10.1678125 7.0946875 9 7 C9.33 6.01 9.66 5.02 10 4 C6.7 3.34 3.4 2.68 0 2 C0 1.34 0 0.68 0 0 Z " fill="#5D634A" transform="translate(367,512)"/>
<path d="M0 0 C0.66 0.33 1.32 0.66 2 1 C2 2.33333333 2 3.66666667 2 5 C1.0925 5.28875 0.185 5.5775 -0.75 5.875 C-3.34106299 6.77190642 -5.57933743 7.75062577 -8 9 C-9.66140763 9.67966676 -11.32700041 10.34938905 -13 11 C-9.0299782 6.78185183 -4.69159716 3.38772897 0 0 Z " fill="#595F48" transform="translate(603,326)"/>
<path d="M0 0 C-0.99 0.33 -1.98 0.66 -3 1 C-3 1.66 -3 2.32 -3 3 C-0.03 3 2.94 3 6 3 C6 3.99 6 4.98 6 6 C2.37 6 -1.26 6 -5 6 C-5 5.34 -5 4.68 -5 4 C-5.99 3.67 -6.98 3.34 -8 3 C-8 2.34 -8 1.68 -8 1 C-5.07175348 0.02391783 -3.04386724 -0.08226668 0 0 Z " fill="#747963" transform="translate(655,675)"/>
<path d="M0 0 C2 2 2 2 2 5 C2.99 5 3.98 5 5 5 C5 5.66 5 6.32 5 7 C4.34 7 3.68 7 3 7 C3.309375 7.639375 3.61875 8.27875 3.9375 8.9375 C5.31935403 12.92049104 5.6536543 16.81650849 6 21 C5.34 20.67 4.68 20.34 4 20 C3.19243704 17.39163059 2.50140947 14.83930011 1.875 12.1875 C1.60236328 11.09985352 1.60236328 11.09985352 1.32421875 9.99023438 C0.48366274 6.53637079 0 3.57424146 0 0 Z " fill="#595D48" transform="translate(346,644)"/>
<path d="M0 0 C1.58409994 0.11487748 3.16728963 0.24234508 4.75 0.375 C6.07257813 0.47941406 6.07257813 0.47941406 7.421875 0.5859375 C9.99066382 0.99850055 11.75841015 1.71160957 14 3 C12.35 3.33 10.7 3.66 9 4 C9.66 4.66 10.32 5.32 11 6 C8.69 5.67 6.38 5.34 4 5 C4 4.34 4 3.68 4 3 C2.68 2.34 1.36 1.68 0 1 C0 0.67 0 0.34 0 0 Z M5 6 C7 7 7 7 7 7 Z " fill="#5D6449" transform="translate(342,296)"/>
<path d="M0 0 C4.66666667 4 9.33333333 8 14 12 C11.33333333 12 8.66666667 12 6 12 C6.33 11.01 6.66 10.02 7 9 C6.34 8.67 5.68 8.34 5 8 C0 2.4047619 0 2.4047619 0 0 Z " fill="#565944" transform="translate(382,434)"/>
<path d="M0 0 C0.33 0 0.66 0 1 0 C1.66 4.62 2.32 9.24 3 14 C2.01 14 1.02 14 0 14 C-1.46876252 9.59371244 -2.41393552 6.49888575 -1 2 C-0.67 1.34 -0.34 0.68 0 0 Z " fill="#EDEFDD" transform="translate(285,404)"/>
<path d="M0 0 C0.33 0 0.66 0 1 0 C1 2.64 1 5.28 1 8 C1.99 7.67 2.98 7.34 4 7 C4 7.99 4 8.98 4 10 C3.34 10 2.68 10 2 10 C2.33 11.98 2.66 13.96 3 16 C1.68 16 0.36 16 -1 16 C-0.67 10.72 -0.34 5.44 0 0 Z " fill="#747A5F" transform="translate(602,608)"/>
<path d="M0 0 C0.33 0 0.66 0 1 0 C0.91621094 0.59167969 0.83242188 1.18335938 0.74609375 1.79296875 C0.19110576 6.09939457 -0.23226652 9.75552644 1 14 C0.01 14 -0.98 14 -2 14 C-2 13.34 -2 12.68 -2 12 C-2.66 12 -3.32 12 -4 12 C-4 10.02 -4 8.04 -4 6 C-3.01 6.495 -3.01 6.495 -2 7 C-1.34 4.69 -0.68 2.38 0 0 Z " fill="#757C61" transform="translate(533,422)"/>
<path d="M0 0 C0.89203125 0.00902344 1.7840625 0.01804687 2.703125 0.02734375 C3.37859375 0.03894531 4.0540625 0.05054688 4.75 0.0625 C3.76 0.3925 2.77 0.7225 1.75 1.0625 C1.75 1.7225 1.75 2.3825 1.75 3.0625 C-2.87 3.0625 -7.49 3.0625 -12.25 3.0625 C-8.04248553 0.25749035 -5.00014586 -0.06579139 0 0 Z " fill="#5D624A" transform="translate(695.25,291.9375)"/>
<path d="M0 0 C2.23860389 1.07490375 4.10233174 2.080625 6.0625 3.625 C8.0117832 5.2893735 8.0117832 5.2893735 11 5 C11 7.31 11 9.62 11 12 C7.08060535 8.19588166 3.50897269 4.18423892 0 0 Z " fill="#555B47" transform="translate(428,518)"/>
<path d="M0 0 C3.3 0 6.6 0 10 0 C9.67 0.99 9.34 1.98 9 3 C7.35 3 5.7 3 4 3 C4 3.66 4 4.32 4 5 C2.25 5.6875 2.25 5.6875 0 6 C-2.25 4.5625 -2.25 4.5625 -4 3 C-2.68 2.34 -1.36 1.68 0 1 C0 0.67 0 0.34 0 0 Z " fill="#727A61" transform="translate(668,297)"/>
<path d="M0 0 C1.32 0.66 2.64 1.32 4 2 C-2.15034169 9.48291572 -2.15034169 9.48291572 -6 12 C-6.33 11.01 -6.66 10.02 -7 9 C-6.38125 8.7525 -5.7625 8.505 -5.125 8.25 C-1.74963396 6.26449057 -1.2020372 3.60611161 0 0 Z " fill="#F9F9ED" transform="translate(566,352)"/>
<path d="M0 0 C2.68433048 2.45091043 3.91789741 4.28241384 4.09765625 8.04296875 C4.06510417 10.02864583 4.03255208 12.01432292 4 14 C2.79371992 11.66785852 1.8345262 9.50357861 1 7 C0.34 7 -0.32 7 -1 7 C-0.67 4.69 -0.34 2.38 0 0 Z " fill="#ECEBDF" transform="translate(596,526)"/>
<path d="M0 0 C0 0.66 0 1.32 0 2 C-4.95 4.475 -4.95 4.475 -10 7 C-10.33 6.01 -10.66 5.02 -11 4 C-9.07392696 1.53890667 -8.06050223 1.01358213 -4.9375 0.3125 C-2 0 -2 0 0 0 Z " fill="#ECECDC" transform="translate(617,457)"/>
<path d="M0 0 C-1.375 1.5 -1.375 1.5 -3 3 C-3.66 3 -4.32 3 -5 3 C-5 2.34 -5 1.68 -5 1 C-5.99 1.495 -5.99 1.495 -7 2 C-8.54023996 2.06950541 -10.08334988 2.08452357 -11.625 2.0625 C-12.85089844 2.04896484 -12.85089844 2.04896484 -14.1015625 2.03515625 C-15.04128906 2.01775391 -15.04128906 2.01775391 -16 2 C-15.67 1.34 -15.34 0.68 -15 0 C-12.63671875 -0.44921875 -12.63671875 -0.44921875 -9.6875 -0.6875 C-8.72199219 -0.77386719 -7.75648438 -0.86023438 -6.76171875 -0.94921875 C-4.25179726 -0.99537006 -2.37671157 -0.75083762 0 0 Z " fill="#FDFBEE" transform="translate(492,444)"/>
<path d="M0 0 C0.99 0.66 1.98 1.32 3 2 C3 2.66 3 3.32 3 4 C2.34 4 1.68 4 1 4 C1.33 6.31 1.66 8.62 2 11 C1.01 11 0.02 11 -1 11 C-2.31625194 8.36749612 -1.74813658 7.19820944 -1.0625 4.375 C-0.86785156 3.55773437 -0.67320312 2.74046875 -0.47265625 1.8984375 C-0.23869141 0.95871094 -0.23869141 0.95871094 0 0 Z " fill="#EDECE0" transform="translate(746,349)"/>
<path d="M0 0 C3.53600465 1.91135386 5.78972846 3.62642766 8 7 C5.35261084 8.4606285 4.10551666 9 1 9 C1.33 8.01 1.66 7.02 2 6 C2 3.53721199 1.14547137 2.14775881 0 0 Z " fill="#EBECE0" transform="translate(641,381)"/>
<path d="M0 0 C1.99097846 2.98646769 2.94124926 5.59687262 4 9 C2.35 9.66 0.7 10.32 -1 11 C-1.125 3.375 -1.125 3.375 0 0 Z " fill="#EBECDD" transform="translate(331,609)"/>
<path d="M0 0 C1 3 1 3 1 7 C1.66 7 2.32 7 3 7 C3 7.66 3 8.32 3 9 C2.34 9 1.68 9 1 9 C1 10.32 1 11.64 1 13 C0.34 13 -0.32 13 -1 13 C-1.02686553 11.02090602 -1.04633375 9.04171029 -1.0625 7.0625 C-1.07410156 5.96035156 -1.08570313 4.85820312 -1.09765625 3.72265625 C-1 1 -1 1 0 0 Z " fill="#F8F7EF" transform="translate(373,403)"/>
<path d="M0 0 C0.33 0.99 0.66 1.98 1 3 C1.99 3.66 2.98 4.32 4 5 C1.1875 6.125 1.1875 6.125 -2 7 C-2.99 6.34 -3.98 5.68 -5 5 C-5 4.01 -5 3.02 -5 2 C-3.35 1.34 -1.7 0.68 0 0 Z " fill="#EBEADC" transform="translate(630,305)"/>
<path d="M0 0 C0.66 0 1.32 0 2 0 C1.49477778 4.37859255 -1.17827222 6.81651224 -4 10 C-4 9.01 -4 8.02 -4 7 C-4.33 6.67 -4.66 6.34 -5 6 C-5.33 5.01 -5.66 4.02 -6 3 C-4.35 3 -2.7 3 -1 3 C-0.67 2.01 -0.34 1.02 0 0 Z " fill="#596149" transform="translate(569,631)"/>
<path d="M0 0 C0.33 0 0.66 0 1 0 C1.33 2.31 1.66 4.62 2 7 C2.33 7 2.66 7 3 7 C2.74438677 9.3431213 2.40729228 11.67843403 2 14 C1.01 14.495 1.01 14.495 0 15 C0 10.05 0 5.1 0 0 Z " fill="#E3E3D9" transform="translate(697,568)"/>
<path d="M0 0 C-1.65 0.33 -3.3 0.66 -5 1 C-5 1.66 -5 2.32 -5 3 C-7.3125 3.625 -7.3125 3.625 -10 4 C-10.99 3.34 -11.98 2.68 -13 2 C-11.5882217 1.46605821 -10.17029756 0.94834896 -8.75 0.4375 C-7.96109375 0.14746094 -7.1721875 -0.14257812 -6.359375 -0.44140625 C-3.80896548 -1.04522837 -2.44677771 -0.8473932 0 0 Z " fill="#5B6049" transform="translate(669,299)"/>
<path d="M0 0 C0.33 0 0.66 0 1 0 C0.22095672 10.55808656 0.22095672 10.55808656 -2 15 C-2.66 13.68 -3.32 12.36 -4 11 C-3.34 11 -2.68 11 -2 11 C-2.061875 9.1128125 -2.061875 9.1128125 -2.125 7.1875 C-2.2390374 3.70935927 -2.05925681 3.08888522 0 0 Z " fill="#565A45" transform="translate(694,590)"/>
<path d="M0 0 C1.06546953 3.1964086 1.07427838 5.65747276 1 9 C-0.98 9.99 -0.98 9.99 -3 11 C-3.75 9.4375 -3.75 9.4375 -4 7 C-2.86915563 4.49713591 -1.47860484 2.32992278 0 0 Z " fill="#EDECDF" transform="translate(573,628)"/>
<path d="M0 0 C0.33 0 0.66 0 1 0 C1.66 3.96 2.32 7.92 3 12 C-1 9 -1 9 -1.75 5.3125 C-1.8325 4.219375 -1.915 3.12625 -2 2 C-1.34 2 -0.68 2 0 2 C0 1.34 0 0.68 0 0 Z " fill="#E5E6D6" transform="translate(324,582)"/>
<path d="M0 0 C0.66 0.33 1.32 0.66 2 1 C2.75 4.4375 2.75 4.4375 3 8 C2.34 8.66 1.68 9.32 1 10 C0.01 7.03 -0.98 4.06 -2 1 C-1.34 0.67 -0.68 0.34 0 0 Z " fill="#EFECE1" transform="translate(441,553)"/>
<path d="M0 0 C4.92980953 2.00844092 8.09403383 5.64105074 11 10 C7.81326038 8.59698853 5.67778594 6.92234929 3.25 4.4375 C2.63640625 3.81746094 2.0228125 3.19742188 1.390625 2.55859375 C0 1 0 1 0 0 Z " fill="#FAFAEA" transform="translate(425,540)"/>
<path d="M0 0 C4.41889613 1.35021826 6.34345343 3.26115668 9 7 C7.02 7.33 5.04 7.66 3 8 C3.2475 7.4225 3.495 6.845 3.75 6.25 C3.87375 5.13625 3.87375 5.13625 4 4 C2.14567913 1.72855926 2.14567913 1.72855926 0 0 Z " fill="#595E47" transform="translate(472,486)"/>
<path d="M0 0 C0 1.98 0 3.96 0 6 C0.66 6.33 1.32 6.66 2 7 C1.67 8.32 1.34 9.64 1 11 C0.16121545 9.71186658 -0.67086783 8.41936744 -1.5 7.125 C-1.9640625 6.40570313 -2.428125 5.68640625 -2.90625 4.9453125 C-4 3 -4 3 -4 1 C-2 0 -2 0 0 0 Z " fill="#5E634B" transform="translate(444,404)"/>
<path d="M0 0 C0.33 0 0.66 0 1 0 C1 1.65 1 3.3 1 5 C1.99 5.33 2.98 5.66 4 6 C3.67 6.33 3.34 6.66 3 7 C2.76924918 8.34747084 2.58846937 9.70377565 2.4375 11.0625 C2.2209375 13.0115625 2.2209375 13.0115625 2 15 C1.67 15 1.34 15 1 15 C-0.32286246 10.03926578 -0.08893197 5.08888488 0 0 Z " fill="#565B46" transform="translate(282,371)"/>
<path d="M0 0 C0.66 0.33 1.32 0.66 2 1 C1.5 2.875 1.5 2.875 0 5 C-2.65177645 5.98494554 -5.20547307 6.45912382 -8 7 C-5.42215154 4.35247996 -3.08351902 2.05567935 0 0 Z " fill="#595D48" transform="translate(630,449)"/>
<path d="M0 0 C2.375 0.3125 2.375 0.3125 5 1 C5.66 1.99 6.32 2.98 7 4 C4.69 4 2.38 4 0 4 C0 2.68 0 1.36 0 0 Z " fill="#606750" transform="translate(448,351)"/>
<path d="M0 0 C2.4375 0.75 2.4375 0.75 5 2 C5.8125 4.125 5.8125 4.125 6 6 C4.35 6 2.7 6 1 6 C0.34 4.35 -0.32 2.7 -1 1 C-0.67 0.67 -0.34 0.34 0 0 Z " fill="#636A50" transform="translate(490,507)"/>
<path d="M0 0 C0 0.66 0 1.32 0 2 C0.639375 2.12375 1.27875 2.2475 1.9375 2.375 C2.618125 2.58125 3.29875 2.7875 4 3 C4.33 3.66 4.66 4.32 5 5 C1.37 4.01 -2.26 3.02 -6 2 C-3 0 -3 0 0 0 Z " fill="#ECEBDD" transform="translate(368,298)"/>
<path d="M0 0 C0.99386719 0.10183594 1.98773437 0.20367187 3.01171875 0.30859375 C3.77097656 0.39238281 4.53023437 0.47617187 5.3125 0.5625 C5.3125 0.8925 5.3125 1.2225 5.3125 1.5625 C0.6925 1.8925 -3.9275 2.2225 -8.6875 2.5625 C-8.6875 1.9025 -8.6875 1.2425 -8.6875 0.5625 C-5.3763987 -0.54120043 -3.44001051 -0.36423641 0 0 Z " fill="#E0E3D5" transform="translate(712.6875,288.4375)"/>
<path d="M0 0 C0 3 0 3 -1.53125 4.60546875 C-2.1809375 5.12753906 -2.830625 5.64960937 -3.5 6.1875 C-4.1496875 6.71730469 -4.799375 7.24710938 -5.46875 7.79296875 C-5.9740625 8.19128906 -6.479375 8.58960938 -7 9 C-7.33 8.01 -7.66 7.02 -8 6 C-7.05125 5.38125 -6.1025 4.7625 -5.125 4.125 C-2.05554891 2.18029031 -2.05554891 2.18029031 0 0 Z " fill="#585C46" transform="translate(467,641)"/>
<path d="M0 0 C1.9375 0.5625 1.9375 0.5625 4 2 C4.75 5.625 4.75 5.625 5 9 C4.67 8.34 4.34 7.68 4 7 C3.01 7 2.02 7 1 7 C0.67 4.69 0.34 2.38 0 0 Z " fill="#646C52" transform="translate(688,540)"/>
<path d="M0 0 C-1.04874998 2.62187494 -1.64931313 3.79371361 -4.125 5.25 C-4.74375 5.4975 -5.3625 5.745 -6 6 C-5.67 4.35 -5.34 2.7 -5 1 C-2 0 -2 0 0 0 Z " fill="#ECECDF" transform="translate(344,520)"/>
<path d="M0 0 C0 1.66666667 0 3.33333333 0 5 C-2.64 5.33 -5.28 5.66 -8 6 C-5.63379989 3.38472619 -3.057952 1.73559438 0 0 Z " fill="#5B5F49" transform="translate(620,456)"/>
<path d="M0 0 C1.98 0.99 3.96 1.98 6 3 C5.01 3.99 4.02 4.98 3 6 C2.01 5.67 1.02 5.34 0 5 C0 3.35 0 1.7 0 0 Z " fill="#EBEBDF" transform="translate(633,672)"/>
<path d="M0 0 C0.598125 0.495 1.19625 0.99 1.8125 1.5 C3.97029994 3.28276418 3.97029994 3.28276418 7 3 C7 4.65 7 6.3 7 8 C5.8274869 7.04882866 4.66212985 6.08882991 3.5 5.125 C2.8503125 4.59132813 2.200625 4.05765625 1.53125 3.5078125 C1.0259375 3.01023437 0.520625 2.51265625 0 2 C0 1.34 0 0.68 0 0 Z " fill="#545842" transform="translate(615,654)"/>
<path d="M0 0 C0 0.66 0 1.32 0 2 C-4.1795645 4.78637633 -6.14668677 3.79562512 -11 3 C-11 2.67 -11 2.34 -11 2 C-9.5422647 1.664061 -8.08378894 1.33133376 -6.625 1 C-5.40683594 0.7215625 -5.40683594 0.7215625 -4.1640625 0.4375 C-2 0 -2 0 0 0 Z " fill="#E4E2D5" transform="translate(546,654)"/>
<path d="M0 0 C4.55384615 -0.36923077 4.55384615 -0.36923077 6.8125 1.5 C7.204375 1.995 7.59625 2.49 8 3 C5.21176345 4.0326802 4.1322726 4.04509293 1.25 3.0625 C0.5075 2.711875 -0.235 2.36125 -1 2 C-0.67 1.34 -0.34 0.68 0 0 Z " fill="#656953" transform="translate(465,483)"/>
<path d="M0 0 C0.66 0 1.32 0 2 0 C2.33 2.31 2.66 4.62 3 7 C1.35 5.68 -0.3 4.36 -2 3 C-1.34 2.01 -0.68 1.02 0 0 Z " fill="#ECE8DC" transform="translate(434,331)"/>
<path d="M0 0 C1.32 0.66 2.64 1.32 4 2 C3.01 3.485 3.01 3.485 2 5 C-0.64 4.67 -3.28 4.34 -6 4 C-5.38125 3.71125 -4.7625 3.4225 -4.125 3.125 C-1.86674235 2.06279958 -1.86674235 2.06279958 0 0 Z " fill="#EBEAE0" transform="translate(344,291)"/>
<path d="M0 0 C1.65 0.33 3.3 0.66 5 1 C5 1.99 5 2.98 5 4 C2.69 3.67 0.38 3.34 -2 3 C-1.34 2.01 -0.68 1.02 0 0 Z " fill="#F9F8ED" transform="translate(562,643)"/>
<path d="M0 0 C0.99 0.33 1.98 0.66 3 1 C-0.14753592 4.14753592 -1.56523436 5.29977385 -6 6 C-4 4 -2 2 0 0 Z " fill="#525942" transform="translate(350,516)"/>
<path d="M0 0 C0.66 0.33 1.32 0.66 2 1 C0.35 2.65 -1.3 4.3 -3 6 C-3 5.34 -3 4.68 -3 4 C-4.32 4.33 -5.64 4.66 -7 5 C-4.88437775 2.67281553 -2.94982021 1.14186589 0 0 Z " fill="#545A44" transform="translate(610,462)"/>
<path d="M0 0 C0.33 0.66 0.66 1.32 1 2 C-0.65 4.31 -2.3 6.62 -4 9 C-5.24546405 6.50907189 -4.7767578 5.58919267 -4 3 C-3.01 3 -2.02 3 -1 3 C-0.67 2.01 -0.34 1.02 0 0 Z " fill="#595E47" transform="translate(722,450)"/>
<path d="M0 0 C3 3.75 3 3.75 3 6 C1.68 6 0.36 6 -1 6 C-1.66 4.35 -2.32 2.7 -3 1 C-2.01 0.67 -1.02 0.34 0 0 Z " fill="#ECEBE0" transform="translate(483,385)"/>
<path d="M0 0 C0.66 0.66 1.32 1.32 2 2 C0.02 4.97 0.02 4.97 -2 8 C-2.66 7.67 -3.32 7.34 -4 7 C-2.68 4.69 -1.36 2.38 0 0 Z " fill="#F9FAED" transform="translate(487,614)"/>
<path d="M0 0 C2.1385485 2.1385485 2.42655063 3.13275314 3 6 C0.525 5.01 0.525 5.01 -2 4 C-1.34 2.68 -0.68 1.36 0 0 Z M-3 5 C-2.34 5 -1.68 5 -1 5 C-1.33 5.66 -1.66 6.32 -2 7 C-2.33 6.34 -2.66 5.68 -3 5 Z " fill="#EDE8DE" transform="translate(437,545)"/>
<path d="M0 0 C0.66 0 1.32 0 2 0 C1.67 2.31 1.34 4.62 1 7 C0.01 7.33 -0.98 7.66 -2 8 C-1.34 5.36 -0.68 2.72 0 0 Z " fill="#E8E9D9" transform="translate(581,418)"/>
<path d="M0 0 C2 1.3125 2 1.3125 4 3 C4 3.99 4 4.98 4 6 C3.01 5.67 2.02 5.34 1 5 C1 4.34 1 3.68 1 3 C0.01 2.67 -0.98 2.34 -2 2 C-1.34 1.34 -0.68 0.68 0 0 Z " fill="#FAF9EE" transform="translate(434,400)"/>
<path d="M0 0 C1.65 0.33 3.3 0.66 5 1 C3.515 2.485 3.515 2.485 2 4 C0.68 3.34 -0.64 2.68 -2 2 C-1.34 2 -0.68 2 0 2 C0 1.34 0 0.68 0 0 Z " fill="#EDEEDF" transform="translate(616,314)"/>
<path d="M0 0 C0.66 0.33 1.32 0.66 2 1 C0.625 2.5 0.625 2.5 -1 4 C-1.66 4 -2.32 4 -3 4 C-3.33 4.99 -3.66 5.98 -4 7 C-4.66 6.67 -5.32 6.34 -6 6 C-2.25 1.125 -2.25 1.125 0 0 Z " fill="#555843" transform="translate(283,293)"/>
</svg>
